<?xml version="1.0" encoding="utf-8"?>
<!-- Generator: Adobe Illustrator 15.1.0, SVG Export Plug-In . SVG Version: 6.00 Build 0)  -->
<!DOCTYPE svg PUBLIC "-//W3C//DTD SVG 1.1//EN" "http://www.w3.org/Graphics/SVG/1.1/DTD/svg11.dtd">
<svg version="1.1" id="Calque_1" xmlns="http://www.w3.org/2000/svg" xmlns:xlink="http://www.w3.org/1999/xlink" x="0px" y="0px"
	 width="503.197px" height="114.839px" viewBox="54.313 338.936 503.197 114.839"
	 enable-background="new 54.313 338.936 503.197 114.839" xml:space="preserve">
<g>
	<rect y="302.549" fill="none" width="612" height="186.902"/>
	<g>
		<g>
			<g>
				<path fill="#D7001E" d="M254.882,381.357c0,0,0,3.727,0,5.502c0.532-1.065,3.905-6.745,10.827-6.745h2.13v9.407h-2.13
					c-6.212,0-9.762,4.615-9.762,10.295v21.121h-11.182v-39.581H254.882z"/>
			</g>
			<g>
				<path fill="#D7001E" d="M370.607,400.703c0-6.034-4.97-10.827-11.182-10.827c-6.035,0-11.005,4.615-11.005,10.472
					c-0.178,6.034,4.615,11.183,11.005,11.183h11.182V400.703z M371.495,386.149v-4.792h10.117v53.781h-11.182v-14.022h-11.537
					c-11.715,0-20.944-9.229-20.944-20.589c0-11.715,9.584-20.589,20.234-20.589C367.058,379.937,371.495,386.149,371.495,386.149z"
					/>
			</g>
			<g>
				<path fill="#D7001E" d="M233.583,381.357v39.758H222.4v-39.758H233.583z M233.583,366.625v9.585H222.4v-9.585H233.583z"/>
			</g>
			<g>
				<path fill="#D7001E" d="M191.694,376.209c-7.1,0-12.957,5.502-12.957,12.247v5.68h20.057v-17.927H191.694z M198.971,421.115
					v-18.104h-20.057v17.926h-11.359v-31.594c0-12.602,10.827-22.719,24.139-22.719h18.459v54.313h-11.182V421.115z"/>
			</g>
			<g>
				<path fill="#D7001E" d="M330.14,366.625v9.585h-11.183v-9.585H330.14z M330.14,381.357v39.758h-11.183v-39.758H330.14z"/>
			</g>
			<g>
				<path fill="#D7001E" d="M453.675,366.625v9.585h-11.182v-9.585H453.675z M453.675,381.357v39.758h-11.182v-39.758H453.675z"/>
			</g>
			<g>
				<path fill="#D7001E" d="M391.552,381.357h11.183v22.186c0,6.035,4.438,9.23,8.875,9.23c4.26,0,9.052-2.84,9.052-9.23v-22.186
					h11.183v39.758h-10.295v-4.792l-0.178,0.177c-3.194,3.729-7.81,5.857-13.135,5.857c-8.52,0-16.684-7.1-16.684-17.217
					L391.552,381.357z"/>
			</g>
			<g>
				<polygon fill="#D7001E" points="296.948,366.625 296.948,411.531 311.502,411.531 311.502,421.115 285.766,421.115 
					285.766,366.625 				"/>
			</g>
			<g>
				<path fill="#D7001E" d="M494.144,401.769c0,6.034-4.97,10.827-11.182,10.827c-6.035,0-10.827-4.615-11.005-10.473
					c-0.178-6.034,4.615-11.182,11.005-11.182h11.182V401.769z M495.209,416.146v4.792h10.117v-54.313h-11.183v14.555h-11.537
					c-11.714,0-20.944,9.23-20.944,20.589c0,11.715,9.585,20.589,20.234,20.589C490.594,422.357,495.209,416.146,495.209,416.146z"
					/>
			</g>
			<g>
				<path fill="#D7001E" d="M523.963,397.509h22.719c-1.597-4.97-5.324-8.342-11.004-8.342S525.738,392.716,523.963,397.509z
					 M535.855,422.357c-12.425,0-22.542-9.406-22.542-21.121s10.117-21.122,22.542-21.122c12.424,0,21.654,9.407,21.654,21.122
					c0,1.064,0,2.307-0.178,3.55h-33.369c1.598,4.97,6.035,8.52,11.715,8.52c5.324,0,8.52-1.598,11.182-4.792l7.987,5.146
					C550.587,418.985,544.02,422.357,535.855,422.357z"/>
			</g>
			<g>
				<path fill="#375F9B" d="M102.414,338.936H54.313v48.101c0,26.624,21.477,48.101,48.101,48.101s48.101-21.478,48.101-48.101
					C150.515,360.59,129.038,338.936,102.414,338.936z M136.493,421.115h-34.079c-18.814,0-34.079-15.264-34.079-34.079
					c0-18.814,15.264-34.079,34.079-34.079s34.079,15.265,34.079,34.079V421.115z M102.414,366.625
					c11.182,0,20.412,9.052,20.412,20.412v20.235h-20.412c-11.182,0-20.412-9.053-20.412-20.413
					C82.002,375.854,91.232,366.625,102.414,366.625z"/>
			</g>
		</g>
		<g>
			<g>
				<path fill="#375F9B" d="M174.299,449.515c-1.065,0-1.953-0.178-2.84-0.532c-0.888-0.355-1.598-0.888-2.13-1.598
					c-0.533-0.71-1.065-1.42-1.42-2.308s-0.533-1.775-0.533-2.84c0-1.065,0.178-1.952,0.533-2.84s0.71-1.775,1.42-2.308
					c0.532-0.71,1.242-1.242,2.13-1.598c0.887-0.354,1.775-0.532,2.84-0.532c1.598,0,3.018,0.354,4.083,1.242s1.775,2.13,1.952,3.55
					h-2.13c-0.177-0.887-0.532-1.774-1.242-2.307c-0.71-0.533-1.42-0.888-2.485-0.888c-0.71,0-1.42,0.178-1.952,0.354
					c-0.533,0.355-1.065,0.71-1.42,1.243c-0.355,0.532-0.71,1.064-0.888,1.774c-0.177,0.71-0.355,1.42-0.355,2.13
					s0.178,1.42,0.355,2.13c0.178,0.71,0.533,1.242,0.888,1.775c0.355,0.532,0.887,0.887,1.42,1.242
					c0.532,0.355,1.242,0.355,1.952,0.355c1.065,0,1.953-0.355,2.663-0.888c0.71-0.533,1.065-1.42,1.065-2.485h2.13
					c-0.177,1.775-0.71,3.018-1.775,3.905S176.074,449.515,174.299,449.515z"/>
			</g>
			<g>
				<path fill="#375F9B" d="M185.659,437.445L185.659,437.445c0.532-0.71,1.065-1.243,1.775-1.775s1.597-0.71,2.485-0.71
					c0.177,0,0.355,0,0.532,0c0.178,0,0.178,0,0.355,0.178v2.13l0,0c-0.177,0-0.355-0.178-0.532-0.178c-0.178,0-0.355,0-0.533,0
					c-0.532,0-1.065,0.178-1.597,0.355c-0.533,0.177-0.888,0.532-1.243,0.887c-0.355,0.355-0.71,0.888-0.888,1.42
					c-0.177,0.533-0.354,1.065-0.354,1.775v7.81h-2.13v-14.021h2.13V437.445z"/>
			</g>
			<g>
				<path fill="#375F9B" d="M199.858,449.515c-1.065,0-1.952-0.178-2.84-0.532c-0.888-0.355-1.598-0.888-2.13-1.598
					c-0.533-0.71-1.065-1.42-1.243-2.308c-0.355-0.888-0.532-1.775-0.532-2.84c0-1.065,0.177-1.952,0.532-2.84
					s0.71-1.775,1.42-2.308c0.533-0.71,1.243-1.242,2.13-1.598c0.887-0.354,1.775-0.532,2.662-0.532c1.065,0,1.953,0.178,2.84,0.532
					c0.888,0.355,1.42,0.888,1.953,1.598c0.532,0.71,0.887,1.598,1.242,2.485c0.355,0.887,0.355,1.952,0.355,3.194h-10.827
					c0,0.71,0.178,1.42,0.355,1.953c0.178,0.532,0.533,1.064,0.888,1.597c0.355,0.533,0.888,0.888,1.42,1.065
					c0.533,0.178,1.243,0.354,1.953,0.354c1.065,0,1.952-0.177,2.485-0.71c0.71-0.532,1.065-1.242,1.42-2.13h2.13
					c-0.355,1.598-1.065,2.663-2.13,3.55C202.876,449.159,201.456,449.515,199.858,449.515z M199.681,436.558
					c-0.71,0-1.243,0.178-1.775,0.354c-0.533,0.178-0.888,0.533-1.243,0.888c-0.355,0.355-0.71,0.888-0.888,1.42
					c-0.177,0.532-0.355,1.065-0.355,1.775h8.342c0-1.42-0.532-2.485-1.242-3.373C201.988,436.912,201.101,436.558,199.681,436.558z
					"/>
			</g>
			<g>
				<path fill="#375F9B" d="M220.448,449.337c-1.42,0-2.13-0.71-2.485-2.13l0,0c-0.178,0.355-0.533,0.532-0.71,0.888
					c-0.355,0.178-0.71,0.532-1.065,0.71s-0.888,0.354-1.243,0.532c-0.532,0.178-1.065,0.178-1.597,0.178
					c-0.71,0-1.243,0-1.953-0.178c-0.532-0.178-1.065-0.354-1.597-0.71c-0.355-0.354-0.71-0.71-1.065-1.242
					c-0.178-0.532-0.355-1.065-0.355-1.775c0-0.887,0.177-1.42,0.532-1.952s0.71-0.888,1.243-1.242
					c0.532-0.355,1.242-0.533,1.952-0.71c0.71-0.178,1.598-0.355,2.485-0.533c0.533,0,0.888-0.177,1.42-0.177
					c0.355-0.178,0.71-0.178,1.065-0.355s0.533-0.354,0.71-0.532c0.178-0.178,0.178-0.532,0.178-0.888
					c0-0.71-0.355-1.42-0.888-1.774c-0.532-0.355-1.242-0.71-2.307-0.71s-1.953,0.177-2.485,0.71
					c-0.533,0.532-0.888,1.242-0.888,2.307h-2.13c0-0.71,0.178-1.242,0.355-1.952c0.178-0.532,0.533-1.064,1.065-1.598
					c0.533-0.354,1.065-0.71,1.775-0.887c0.71-0.178,1.598-0.355,2.485-0.355c0.71,0,1.42,0,2.13,0.178s1.243,0.354,1.598,0.71
					c0.533,0.354,0.888,0.888,1.065,1.42c0.355,0.532,0.355,1.242,0.355,2.13v6.745c0,0.532,0.178,1.064,0.355,1.242
					c0.178,0.354,0.533,0.354,1.243,0.178l0,0v1.597c-0.178,0-0.355,0.178-0.533,0.178
					C220.98,449.159,220.803,449.337,220.448,449.337z M213.88,447.739c0.71,0,1.42-0.177,1.953-0.354
					c0.532-0.178,1.065-0.532,1.242-0.888c0.355-0.354,0.533-0.71,0.71-1.242c0.178-0.532,0.355-0.888,0.355-1.243v-2.307
					c-0.355,0.177-0.887,0.354-1.42,0.532c-0.532,0.178-1.242,0.354-1.775,0.354c-0.532,0.178-1.065,0.178-1.597,0.355
					c-0.533,0.178-0.888,0.355-1.243,0.532c-0.355,0.178-0.71,0.532-0.887,0.71c-0.178,0.355-0.355,0.71-0.355,1.243
					c0,0.532,0,0.887,0.177,1.242c0.178,0.354,0.355,0.532,0.71,0.71s0.533,0.354,0.888,0.354
					C213.17,447.739,213.525,447.739,213.88,447.739z"/>
			</g>
			<g>
				<path fill="#375F9B" d="M223.465,435.138h1.952V430.7h2.13v4.438h2.663v1.774h-2.663v9.053c0,0.532,0.178,0.888,0.355,1.064
					c0.178,0.178,0.533,0.355,1.065,0.355c0.177,0,0.354,0,0.71,0c0.177,0,0.354-0.178,0.532-0.178l0,0v1.952
					c-0.178,0-0.532,0.178-0.888,0.178c-0.354,0-0.532,0-0.887,0c-0.888,0-1.598-0.178-2.13-0.532
					c-0.533-0.355-0.888-1.065-0.888-2.13v-9.585h-1.952V435.138z"/>
			</g>
			<g>
				<path fill="#375F9B" d="M233.938,435.138h2.13v14.021h-2.13V435.138z M233.938,429.812h2.13v2.662h-2.13V429.812z"/>
			</g>
			<g>
				<path fill="#375F9B" d="M238.729,435.138h2.308l2.84,8.874c0.178,0.355,0.178,0.711,0.355,1.065
					c0.178,0.354,0.178,0.71,0.355,0.888c0.178,0.354,0.178,0.71,0.355,1.064l0,0c0-0.354,0.178-0.71,0.355-1.064
					c0.178-0.355,0.178-0.71,0.355-0.888c0.178-0.354,0.178-0.71,0.355-0.888l3.018-8.874h2.308l-4.97,14.021h-2.485
					L238.729,435.138z"/>
			</g>
			<g>
				<path fill="#375F9B" d="M259.674,449.515c-1.065,0-1.952-0.178-2.84-0.532c-0.887-0.355-1.597-0.888-2.13-1.598
					c-0.532-0.71-1.065-1.42-1.242-2.308c-0.355-0.888-0.533-1.775-0.533-2.84c0-1.065,0.178-1.952,0.533-2.84
					s0.71-1.775,1.42-2.308c0.532-0.71,1.242-1.242,2.13-1.598c0.887-0.354,1.775-0.532,2.662-0.532c1.065,0,1.953,0.178,2.84,0.532
					c0.887,0.355,1.42,0.888,1.952,1.598c0.533,0.71,0.888,1.598,1.243,2.485c0.355,0.887,0.355,1.952,0.355,3.194h-10.827
					c0,0.71,0.177,1.42,0.355,1.953c0.177,0.532,0.532,1.064,0.887,1.597c0.355,0.533,0.888,0.888,1.42,1.065
					c0.533,0.178,1.243,0.354,1.953,0.354c1.065,0,1.953-0.177,2.485-0.71c0.71-0.532,1.065-1.242,1.42-2.13h2.13
					c-0.355,1.598-1.065,2.663-2.13,3.55C262.691,449.159,261.271,449.515,259.674,449.515z M259.674,436.558
					c-0.71,0-1.242,0.178-1.775,0.354c-0.532,0.178-0.887,0.533-1.242,0.888c-0.355,0.355-0.71,0.888-0.888,1.42
					c-0.177,0.532-0.355,1.065-0.355,1.775h8.342c0-1.42-0.532-2.485-1.242-3.373C261.804,436.912,260.917,436.558,259.674,436.558z
					"/>
			</g>
			<g>
				<path fill="#375F9B" d="M280.796,449.515c-1.065,0-1.953-0.178-2.84-0.532c-0.888-0.355-1.598-0.888-2.13-1.598
					c-0.533-0.71-1.065-1.42-1.42-2.308c-0.355-0.888-0.533-1.775-0.533-2.84c0-1.065,0.177-1.952,0.533-2.84
					c0.355-0.888,0.71-1.775,1.42-2.308c0.532-0.71,1.242-1.242,2.13-1.598c0.887-0.354,1.775-0.532,2.84-0.532
					s1.952,0.178,2.84,0.532c0.888,0.355,1.598,0.888,2.13,1.598c0.533,0.71,1.065,1.42,1.42,2.308s0.533,1.774,0.533,2.84
					c0,1.064-0.178,1.952-0.533,2.84s-0.71,1.598-1.42,2.308c-0.532,0.71-1.242,1.242-2.13,1.598
					C282.748,449.337,281.861,449.515,280.796,449.515z M280.796,447.739c0.71,0,1.42-0.177,1.952-0.354
					c0.533-0.355,1.065-0.71,1.42-1.242c0.355-0.533,0.71-1.065,0.887-1.775c0.178-0.71,0.355-1.42,0.355-2.13
					s-0.177-1.42-0.355-2.13c-0.177-0.71-0.532-1.242-0.887-1.775c-0.355-0.532-0.888-0.887-1.42-1.242
					c-0.532-0.354-1.242-0.354-1.952-0.354s-1.42,0.177-1.953,0.354c-0.532,0.355-1.065,0.71-1.42,1.242
					c-0.355,0.533-0.71,1.065-0.887,1.775c-0.178,0.71-0.355,1.42-0.355,2.13s0.177,1.42,0.355,2.13
					c0.177,0.71,0.532,1.242,0.887,1.775c0.355,0.532,0.888,0.887,1.42,1.242C279.376,447.562,280.086,447.739,280.796,447.739z"/>
			</g>
			<g>
				<polygon fill="#375F9B" points="294.818,441.882 290.203,435.138 292.688,435.138 296.061,440.285 296.061,440.285 
					299.433,435.138 301.918,435.138 297.303,441.527 302.805,449.159 300.143,449.159 296.061,443.125 296.061,443.125 
					291.978,449.159 289.493,449.159 				"/>
			</g>
			<g>
				<path fill="#375F9B" d="M307.42,453.774c-0.354,0-0.71,0-1.064,0c-0.355,0-0.533-0.178-0.888-0.178v-1.952h0.177
					c0.178,0.178,0.355,0.178,0.533,0.178s0.532,0,0.888,0c0.532,0,0.887-0.178,1.242-0.355c0.354-0.178,0.71-0.71,0.888-1.42
					l0.532-1.42l-5.503-13.667h2.308l3.373,8.697c0.177,0.354,0.177,0.71,0.354,0.888c0.178,0.354,0.178,0.532,0.355,0.887
					c0.177,0.355,0.177,0.711,0.354,0.888l0,0c0.178-0.354,0.178-0.532,0.355-0.888c0.177-0.354,0.177-0.532,0.354-0.887
					c0.178-0.355,0.178-0.71,0.355-0.888l3.194-8.697h2.308l-6.035,15.087c-0.354,0.71-0.532,1.242-0.887,1.775
					c-0.355,0.532-0.533,0.887-0.888,1.064c-0.355,0.355-0.71,0.532-1.065,0.532C308.13,453.774,307.775,453.774,307.42,453.774z"/>
			</g>
			<g>
				<path fill="#375F9B" d="M325.524,453.774c-1.775,0-3.195-0.355-4.26-1.065c-1.065-0.71-1.598-1.597-1.598-2.84h1.952
					c0.178,0.71,0.533,1.243,1.243,1.598c0.71,0.355,1.597,0.532,2.662,0.532c1.242,0,2.308-0.354,3.018-0.887
					c0.71-0.533,1.064-1.42,1.064-2.663v-1.952l0,0c-0.532,0.71-1.064,1.242-1.774,1.598c-0.533,0.354-1.42,0.532-2.485,0.532
					c-0.888,0-1.774-0.178-2.484-0.532c-0.71-0.355-1.42-0.888-1.953-1.42c-0.532-0.532-0.887-1.42-1.242-2.13
					c-0.354-0.888-0.354-1.775-0.354-2.84c0-1.065,0.177-2.13,0.532-2.84c0.354-0.888,0.71-1.598,1.242-2.13
					c0.532-0.533,1.242-1.065,1.952-1.42c0.71-0.355,1.42-0.533,2.308-0.533c1.065,0,1.953,0.178,2.485,0.533
					c0.71,0.354,1.242,0.887,1.774,1.597l0,0v-1.774h2.13v13.312c0,0.888-0.177,1.775-0.354,2.308
					c-0.355,0.71-0.71,1.242-1.242,1.775c-0.533,0.532-1.243,0.71-1.953,1.064C327.299,453.597,326.412,453.774,325.524,453.774z
					 M325.347,446.853c0.888,0,1.42-0.178,1.952-0.355c0.533-0.354,1.065-0.71,1.243-1.064c0.354-0.533,0.532-1.065,0.71-1.598
					c0.178-0.71,0.178-1.243,0.178-2.13c0-1.598-0.355-2.663-1.065-3.55c-0.71-0.888-1.775-1.243-3.195-1.243
					c-1.242,0-2.307,0.533-3.017,1.42c-0.71,0.888-0.888,2.13-0.888,3.728s0.354,2.84,1.064,3.728
					C323.039,446.319,324.104,446.853,325.347,446.853z"/>
			</g>
			<g>
				<path fill="#375F9B" d="M341.677,449.515c-1.065,0-1.953-0.178-2.841-0.532c-0.887-0.355-1.597-0.888-2.13-1.598
					c-0.532-0.71-1.064-1.42-1.242-2.308c-0.354-0.888-0.532-1.775-0.532-2.84c0-1.065,0.178-1.952,0.532-2.84
					c0.355-0.888,0.71-1.775,1.42-2.308c0.532-0.71,1.243-1.242,2.13-1.598c0.888-0.354,1.775-0.532,2.663-0.532
					c1.064,0,1.952,0.178,2.84,0.532c0.887,0.355,1.42,0.888,1.952,1.598s0.888,1.598,1.242,2.485
					c0.355,0.887,0.355,1.952,0.355,3.194h-10.827c0,0.71,0.177,1.42,0.354,1.953c0.178,0.532,0.533,1.064,0.888,1.597
					c0.354,0.533,0.888,0.888,1.42,1.065s1.242,0.354,1.952,0.354c1.065,0,1.953-0.177,2.485-0.71c0.71-0.532,1.064-1.242,1.42-2.13
					h2.13c-0.355,1.598-1.065,2.663-2.13,3.55C344.693,449.159,343.273,449.515,341.677,449.515z M341.677,436.558
					c-0.71,0-1.243,0.178-1.775,0.354c-0.532,0.178-0.888,0.533-1.242,0.888c-0.355,0.355-0.71,0.888-0.888,1.42
					s-0.355,1.065-0.355,1.775h8.343c0-1.42-0.532-2.485-1.242-3.373C343.807,436.912,342.919,436.558,341.677,436.558z"/>
			</g>
			<g>
				<path fill="#375F9B" d="M353.568,436.912L353.568,436.912c0.532-0.71,1.242-1.242,1.952-1.597
					c0.71-0.355,1.598-0.533,2.663-0.533c1.42,0,2.662,0.355,3.372,1.243c0.888,0.71,1.242,1.952,1.242,3.372v9.762h-2.13v-9.584
					c0-0.888-0.354-1.598-0.888-2.13c-0.532-0.533-1.42-0.71-2.307-0.71c-0.533,0-1.065,0.177-1.598,0.354s-0.888,0.355-1.242,0.71
					c-0.355,0.355-0.533,0.71-0.888,1.242c-0.178,0.533-0.355,1.065-0.355,1.598v8.52h-2.13v-14.021h2.13v1.774H353.568z"/>
			</g>
		</g>
	</g>
</g>
</svg>
